# xmcd CD database file
#
# Track frame offsets:
#	151
#	13742
#	30924
#	44819
#	57294
#	70519
#	87069
#	103242
#	115059
#	125302
#	138339
#
# Disc length: 2029 seconds
#
# Revision: 0
# Processed by: cddbd v1.5.1PL0 Copyright (c) Steve Scherf et al.
# Submitted via: CDex 1.51
#
DISCID=8c07eb0b
DTITLE=Barry White - Your Heart And Soul
DYEAR=2003
DGENRE=Rhythmic Soul
TTITLE0=I've Got The Whole World To Hold Me Up
TTITLE1=Your Heart And Soul
TTITLE2=Under Thhe Influence Of Love
TTITLE3=All In the Shadows Of Love
TTITLE4=Long Black Veil
TTITLE5=Come On In Love
TTITLE6=Come On In Love
TTITLE7=Where Can I Turn To
TTITLE8=I Owe It All To You
TTITLE9=Fragile - Handle With Care
TTITLE10=My Buddy
EXTD=YEAR: 2003
EXTT0=
EXTT1=
EXTT2=
EXTT3=
EXTT4=
EXTT5=
EXTT6=
EXTT7=
EXTT8=
EXTT9=
EXTT10=
PLAYORDER=
